<svg version="1.1" viewBox="0.0 10 230 200" fill="none" stroke="none" stroke-linecap="square" stroke-miterlimit="10" xmlns:xlink="http://www.w3.org/1999/xlink" xmlns="http://www.w3.org/2000/svg"><clipPath id="p.0"><path d="m0 0l960.0 0l0 720.0l-960.0 0l0 -720.0z" clip-rule="nonzero"/></clipPath><g clip-path="url(#p.0)"><path fill="#000000" fill-opacity="0.0" d="m0 0l960.0 0l0 720.0l-960.0 0z" fill-rule="evenodd"/><path fill="#000000" fill-opacity="0.0" d="m16.0 88.0l0 0c0 -39.764503 32.235497 -72.0 72.0 -72.0l0 0c19.095589 0 37.409065 7.5856934 50.911682 21.08831c13.5026245 13.502621 21.088318 31.816101 21.088318 50.91169l0 0c0 39.764503 -32.235497 72.0 -72.0 72.0l0 0c-39.764503 0 -72.0 -32.235497 -72.0 -72.0z" fill-rule="evenodd"/><path stroke="#000000" stroke-width="2.0" stroke-linejoin="round" stroke-linecap="butt" d="m16.0 88.0l0 0c0 -39.764503 32.235497 -72.0 72.0 -72.0l0 0c19.095589 0 37.409065 7.5856934 50.911682 21.08831c13.5026245 13.502621 21.088318 31.816101 21.088318 50.91169l0 0c0 39.764503 -32.235497 72.0 -72.0 72.0l0 0c-39.764503 0 -72.0 -32.235497 -72.0 -72.0z" fill-rule="evenodd"/><path fill="#000000" fill-opacity="0.0" d="m88.0 88.0l96.0 0" fill-rule="evenodd"/><path stroke="#000000" stroke-width="1.0" stroke-linejoin="round" stroke-linecap="butt" stroke-dasharray="4.0,3.0" d="m88.0 88.0l96.0 0" fill-rule="evenodd"/><path fill="#000000" fill-opacity="0.0" d="m88.0 88.0l0 96.0" fill-rule="evenodd"/><path stroke="#000000" stroke-width="1.0" stroke-linejoin="round" stroke-linecap="butt" stroke-dasharray="4.0,3.0" d="m88.0 88.0l0 96.0" fill-rule="evenodd"/><path fill="#000000" fill-opacity="0.0" d="m136.0 184.0l0 -96.0" fill-rule="evenodd"/><path stroke="#000000" stroke-width="1.0" stroke-linejoin="round" stroke-linecap="butt" stroke-dasharray="4.0,3.0" d="m136.0 184.0l0 -96.0" fill-rule="evenodd"/><path fill="#000000" fill-opacity="0.0" d="m136.0 184.0l-48.0 0" fill-rule="evenodd"/><path stroke="#000000" stroke-width="1.0" stroke-linejoin="round" stroke-linecap="butt" stroke-dasharray="4.0,3.0" d="m136.0 184.0l-48.0 0" fill-rule="evenodd"/><path fill="#000000" fill-opacity="0.0" d="m40.0 184.0l144.0 0l0 32.0l-144.0 0z" fill-rule="evenodd"/><path fill="#000000" d="m73.378586 201.15938q0 -2.375 1.28125 -3.71875q1.28125 -1.34375 3.296875 -1.34375q1.3125 0 2.375 0.625q1.0625 0.625 1.609375 1.765625q0.5625 1.125 0.5625 2.5625q0 1.4375 -0.59375 2.59375q-0.578125 1.140625 -1.65625 1.734375q-1.0625 0.578125 -2.3125 0.578125q-1.34375 0 -2.40625 -0.640625q-1.0625 -0.65625 -1.609375 -1.78125q-0.546875 -1.125 -0.546875 -2.375zm1.3125 0.015625q0 1.71875 0.921875 2.71875q0.921875 0.984375 2.328125 0.984375q1.421875 0 2.34375 -1.0q0.921875 -1.0 0.921875 -2.84375q0 -1.15625 -0.40625 -2.03125q-0.390625 -0.875 -1.15625 -1.34375q-0.75 -0.484375 -1.6875 -0.484375q-1.34375 0 -2.3125 0.921875q-0.953125 0.921875 -0.953125 3.078125zm13.820175 4.625l0 -1.015625q-0.8125 1.171875 -2.1875 1.171875q-0.609375 0 -1.140625 -0.234375q-0.53125 -0.234375 -0.796875 -0.578125q-0.25 -0.359375 -0.359375 -0.875q-0.0625 -0.34375 -0.0625 -1.09375l0 -4.28125l1.171875 0l0 3.828125q0 0.921875 0.0625 1.234375q0.109375 0.46875 0.46875 0.734375q0.359375 0.25 0.890625 0.25q0.515625 0 0.984375 -0.265625q0.46875 -0.265625 0.65625 -0.734375q0.1875 -0.46875 0.1875 -1.34375l0 -3.703125l1.171875 0l0 6.90625l-1.046875 0zm5.4437256 -1.046875l0.171875 1.03125q-0.5 0.109375 -0.890625 0.109375q-0.640625 0 -1.0 -0.203125q-0.34375 -0.203125 -0.484375 -0.53125q-0.140625 -0.328125 -0.140625 -1.390625l0 -3.96875l-0.859375 0l0 -0.90625l0.859375 0l0 -1.71875l1.171875 -0.703125l0 2.421875l1.171875 0l0 0.90625l-1.171875 0l0 4.046875q0 0.5 0.046875 0.640625q0.0625 0.140625 0.203125 0.234375q0.140625 0.078125 0.40625 0.078125q0.203125 0 0.515625 -0.046875zm5.8748627 -1.171875l1.203125 0.140625q-0.28125 1.0625 -1.0625 1.65625q-0.765625 0.578125 -1.96875 0.578125q-1.515625 0 -2.40625 -0.9375q-0.890625 -0.9375 -0.890625 -2.609375q0 -1.75 0.890625 -2.703125q0.90625 -0.96875 2.34375 -0.96875q1.390625 0 2.265625 0.9375q0.875 0.9375 0.875 2.65625q0 0.109375 0 0.3125l-5.15625 0q0.0625 1.140625 0.640625 1.75q0.578125 0.59375 1.4375 0.59375q0.65625 0 1.109375 -0.328125q0.453125 -0.34375 0.71875 -1.078125zm-3.84375 -1.90625l3.859375 0q-0.078125 -0.859375 -0.4375 -1.296875q-0.5625 -0.6875 -1.453125 -0.6875q-0.8125 0 -1.359375 0.546875q-0.546875 0.53125 -0.609375 1.4375zm6.5062256 4.125l0 -6.90625l1.0625 0l0 1.046875q0.40625 -0.734375 0.734375 -0.96875q0.34375 -0.234375 0.765625 -0.234375q0.59375 0 1.203125 0.375l-0.40625 1.078125q-0.4375 -0.25 -0.859375 -0.25q-0.390625 0 -0.703125 0.234375q-0.296875 0.234375 -0.421875 0.640625q-0.203125 0.625 -0.203125 1.359375l0 3.625l-1.171875 0zm8.328857 0l0 -9.546875l4.234375 0q1.265625 0 1.921875 0.265625q0.671875 0.25 1.0625 0.90625q0.40625 0.65625 0.40625 1.4375q0 1.015625 -0.65625 1.71875q-0.65625 0.6875 -2.03125 0.875q0.5 0.25 0.765625 0.484375q0.546875 0.5 1.046875 1.265625l1.65625 2.59375l-1.578125 0l-1.265625 -1.984375q-0.5625 -0.859375 -0.921875 -1.3125q-0.34375 -0.453125 -0.640625 -0.640625q-0.28125 -0.1875 -0.5625 -0.25q-0.21875 -0.046875 -0.703125 -0.046875l-1.46875 0l0 4.234375l-1.265625 0zm1.265625 -5.328125l2.71875 0q0.859375 0 1.34375 -0.171875q0.484375 -0.1875 0.734375 -0.578125q0.265625 -0.390625 0.265625 -0.859375q0 -0.671875 -0.5 -1.109375q-0.484375 -0.4375 -1.546875 -0.4375l-3.015625 0l0 3.15625zm12.703278 4.46875q-0.65625 0.5625 -1.265625 0.796875q-0.59375 0.21875 -1.28125 0.21875q-1.140625 0 -1.75 -0.546875q-0.609375 -0.5625 -0.609375 -1.4375q0 -0.5 0.21875 -0.921875q0.234375 -0.421875 0.609375 -0.671875q0.375 -0.25 0.84375 -0.390625q0.34375 -0.078125 1.046875 -0.171875q1.421875 -0.171875 2.09375 -0.40625q0 -0.234375 0 -0.296875q0 -0.71875 -0.328125 -1.015625q-0.453125 -0.390625 -1.34375 -0.390625q-0.8125 0 -1.21875 0.296875q-0.390625 0.28125 -0.578125 1.015625l-1.140625 -0.15625q0.15625 -0.734375 0.515625 -1.1875q0.359375 -0.453125 1.03125 -0.6875q0.671875 -0.25 1.5625 -0.25q0.890625 0 1.4375 0.203125q0.5625 0.203125 0.8125 0.53125q0.265625 0.3125 0.375 0.796875q0.046875 0.296875 0.046875 1.078125l0 1.5625q0 1.625 0.078125 2.0625q0.078125 0.4375 0.296875 0.828125l-1.21875 0q-0.1875 -0.359375 -0.234375 -0.859375zm-0.09375 -2.609375q-0.640625 0.265625 -1.921875 0.4375q-0.71875 0.109375 -1.015625 0.25q-0.296875 0.125 -0.46875 0.375q-0.15625 0.25 -0.15625 0.546875q0 0.46875 0.34375 0.78125q0.359375 0.3125 1.046875 0.3125q0.671875 0 1.203125 -0.296875q0.53125 -0.296875 0.78125 -0.8125q0.1875 -0.390625 0.1875 -1.171875l0 -0.421875zm7.4749756 3.46875l0 -0.875q-0.65625 1.03125 -1.9375 1.03125q-0.8125 0 -1.515625 -0.453125q-0.6875 -0.453125 -1.078125 -1.265625q-0.375 -0.828125 -0.375 -1.890625q0 -1.03125 0.34375 -1.875q0.34375 -0.84375 1.03125 -1.28125q0.703125 -0.453125 1.546875 -0.453125q0.625 0 1.109375 0.265625q0.5 0.25 0.796875 0.671875l0 -3.421875l1.171875 0l0 9.546875l-1.09375 0zm-3.703125 -3.453125q0 1.328125 0.5625 1.984375q0.5625 0.65625 1.328125 0.65625q0.765625 0 1.296875 -0.625q0.53125 -0.625 0.53125 -1.90625q0 -1.421875 -0.546875 -2.078125q-0.546875 -0.671875 -1.34375 -0.671875q-0.78125 0 -1.3125 0.640625q-0.515625 0.625 -0.515625 2.0zm6.6468506 -4.734375l0 -1.359375l1.171875 0l0 1.359375l-1.171875 0zm0 8.1875l0 -6.90625l1.171875 0l0 6.90625l-1.171875 0zm7.476715 0l0 -1.015625q-0.8125 1.171875 -2.1875 1.171875q-0.609375 0 -1.140625 -0.234375q-0.53125 -0.234375 -0.796875 -0.578125q-0.25 -0.359375 -0.359375 -0.875q-0.0625 -0.34375 -0.0625 -1.09375l0 -4.28125l1.171875 0l0 3.828125q0 0.921875 0.0625 1.234375q0.109375 0.46875 0.46875 0.734375q0.359375 0.25 0.890625 0.25q0.515625 0 0.984375 -0.265625q0.46875 -0.265625 0.65625 -0.734375q0.1875 -0.46875 0.1875 -1.34375l0 -3.703125l1.171875 0l0 6.90625l-1.046875 0zm2.4124756 -2.0625l1.15625 -0.1875q0.109375 0.703125 0.546875 1.078125q0.453125 0.359375 1.25 0.359375q0.8125 0 1.203125 -0.328125q0.390625 -0.328125 0.390625 -0.765625q0 -0.390625 -0.359375 -0.625q-0.234375 -0.15625 -1.1875 -0.390625q-1.296875 -0.328125 -1.796875 -0.5625q-0.484375 -0.25 -0.75 -0.65625q-0.25 -0.421875 -0.25 -0.9375q0 -0.453125 0.203125 -0.84375q0.21875 -0.40625 0.578125 -0.671875q0.28125 -0.1875 0.75 -0.328125q0.46875 -0.140625 1.015625 -0.140625q0.8125 0 1.421875 0.234375q0.609375 0.234375 0.90625 0.640625q0.296875 0.390625 0.40625 1.0625l-1.140625 0.15625q-0.078125 -0.53125 -0.453125 -0.828125q-0.375 -0.3125 -1.0625 -0.3125q-0.8125 0 -1.15625 0.265625q-0.34375 0.265625 -0.34375 0.625q0 0.234375 0.140625 0.421875q0.15625 0.1875 0.453125 0.3125q0.171875 0.0625 1.03125 0.296875q1.25 0.328125 1.734375 0.546875q0.5 0.203125 0.78125 0.609375q0.28125 0.40625 0.28125 1.0q0 0.59375 -0.34375 1.109375q-0.34375 0.515625 -1.0 0.796875q-0.640625 0.28125 -1.453125 0.28125q-1.34375 0 -2.046875 -0.5625q-0.703125 -0.5625 -0.90625 -1.65625z" fill-rule="nonzero"/><path fill="#000000" fill-opacity="0.0" d="m40.0 88.0l0 0c0 -26.509666 21.490334 -48.0 48.0 -48.0l0 0c12.730392 0 24.939377 5.057129 33.941124 14.058876c9.001747 9.001743 14.058876 21.210732 14.058876 33.941124l0 0c0 26.509666 -21.490334 48.0 -48.0 48.0l0 0c-26.509666 0 -48.0 -21.490334 -48.0 -48.0z" fill-rule="evenodd"/><path stroke="#000000" stroke-width="2.0" stroke-linejoin="round" stroke-linecap="butt" d="m40.0 88.0l0 0c0 -26.509666 21.490334 -48.0 48.0 -48.0l0 0c12.730392 0 24.939377 5.057129 33.941124 14.058876c9.001747 9.001743 14.058876 21.210732 14.058876 33.941124l0 0c0 26.509666 -21.490334 48.0 -48.0 48.0l0 0c-26.509666 0 -48.0 -21.490334 -48.0 -48.0z" fill-rule="evenodd"/><path fill="#000000" fill-opacity="0.0" d="m88.0 160.0l96.0 0" fill-rule="evenodd"/><path stroke="#000000" stroke-width="1.0" stroke-linejoin="round" stroke-linecap="butt" stroke-dasharray="4.0,3.0" d="m88.0 160.0l96.0 0" fill-rule="evenodd"/><path fill="#000000" fill-opacity="0.0" d="m184.0 88.0l0 72.0" fill-rule="evenodd"/><path stroke="#000000" stroke-width="1.0" stroke-linejoin="round" stroke-linecap="butt" stroke-dasharray="4.0,3.0" d="m184.0 88.0l0 72.0" fill-rule="evenodd"/><path fill="#000000" fill-opacity="0.0" d="m184.0 200.0l0 -144.0l32.0 0l0 144.0z" fill-rule="evenodd"/><path fill="#000000" d="m205.8 164.53476l-9.546875 0l0 -1.25l9.546875 0l0 1.25zm0 -3.328003l-6.90625 0l0 -1.0625l0.984375 0q-1.140625 -0.75 -1.140625 -2.1875q0 -0.625 0.21875 -1.15625q0.21875 -0.53125 0.59375 -0.78125q0.359375 -0.265625 0.859375 -0.375q0.328125 -0.0625 1.140625 -0.0625l4.25 0l0 1.171875l-4.203125 0q-0.71875 0 -1.0625 0.140625q-0.359375 0.140625 -0.5625 0.484375q-0.21875 0.34375 -0.21875 0.8125q0 0.75 0.46875 1.296875q0.46875 0.546875 1.796875 0.546875l3.78125 0l0 1.171875zm0 -7.4124756l-6.90625 0l0 -1.0625l0.984375 0q-1.140625 -0.75 -1.140625 -2.1875q0 -0.625 0.21875 -1.15625q0.21875 -0.53125 0.59375 -0.78125q0.359375 -0.265625 0.859375 -0.375q0.328125 -0.0625 1.140625 -0.0625l4.25 0l0 1.171875l-4.203125 0q-0.71875 0 -1.0625 0.140625q-0.359375 0.140625 -0.5625 0.484375q-0.21875 0.34375 -0.21875 0.8125q0 0.75 0.46875 1.296875q0.46875 0.546875 1.796875 0.546875l3.78125 0l0 1.171875zm-2.21875 -12.146851l0.140625 -1.203125q1.0625 0.28125 1.65625 1.0625q0.578125 0.765625 0.578125 1.96875q0 1.515625 -0.9375 2.40625q-0.9375 0.890625 -2.609375 0.890625q-1.75 0 -2.703125 -0.890625q-0.96875 -0.90625 -0.96875 -2.34375q0 -1.390625 0.9375 -2.265625q0.9375 -0.875 2.65625 -0.875q0.109375 0 0.3125 0l0 5.15625q1.140625 -0.0625 1.75 -0.640625q0.59375 -0.578125 0.59375 -1.4375q0 -0.65625 -0.328125 -1.109375q-0.34375 -0.453125 -1.078125 -0.71875zm-1.90625 3.84375l0 -3.859375q-0.859375 0.078125 -1.296875 0.4375q-0.6875 0.5625 -0.6875 1.453125q0 0.8125 0.546875 1.359375q0.53125 0.546875 1.4375 0.609375zm4.125 -6.5062256l-6.90625 0l0 -1.0625l1.046875 0q-0.734375 -0.40625 -0.96875 -0.734375q-0.234375 -0.34375 -0.234375 -0.765625q0 -0.59375 0.375 -1.203125l1.078125 0.40625q-0.25 0.4375 -0.25 0.859375q0 0.390625 0.234375 0.703125q0.234375 0.296875 0.640625 0.421875q0.625 0.203125 1.359375 0.203125l3.625 0l0 1.171875zm0 -8.328857l-9.546875 0l0 -4.2343674q0 -1.265625 0.265625 -1.921875q0.25 -0.671875 0.90625 -1.0625q0.65625 -0.40625 1.4375 -0.40625q1.015625 0 1.71875 0.65625q0.6875 0.65625 0.875 2.03125q0.25 -0.5 0.484375 -0.765625q0.5 -0.546875 1.265625 -1.046875l2.59375 -1.65625l0 1.578125l-1.984375 1.265625q-0.859375 0.5625 -1.3125 0.921875q-0.453125 0.34375 -0.640625 0.640625q-0.1875 0.28125 -0.25 0.5625q-0.046875 0.21875 -0.046875 0.703125l0 1.4687424l4.234375 0l0 1.265625zm-5.328125 -1.265625l0 -2.7187424q0 -0.859375 -0.171875 -1.34375q-0.1875 -0.484375 -0.578125 -0.734375q-0.390625 -0.265625 -0.859375 -0.265625q-0.671875 0 -1.109375 0.5q-0.4375 0.484375 -0.4375 1.546875l0 3.0156174l3.15625 0zm4.46875 -12.70327q0.5625 0.65625 0.796875 1.265625q0.21875 0.59375 0.21875 1.28125q0 1.140625 -0.546875 1.75q-0.5625 0.609375 -1.4375 0.609375q-0.5 0 -0.921875 -0.21875q-0.421875 -0.234375 -0.671875 -0.609375q-0.25 -0.375 -0.390625 -0.84375q-0.078125 -0.34375 -0.171875 -1.046875q-0.171875 -1.421875 -0.40625 -2.09375q-0.234375 0 -0.296875 0q-0.71875 0 -1.015625 0.328125q-0.390625 0.453125 -0.390625 1.34375q0 0.8125 0.296875 1.21875q0.28125 0.390625 1.015625 0.578125l-0.15625 1.140625q-0.734375 -0.15625 -1.1875 -0.515625q-0.453125 -0.359375 -0.6875 -1.03125q-0.25 -0.671875 -0.25 -1.5625q0 -0.890625 0.203125 -1.4375q0.203125 -0.5625 0.53125 -0.8125q0.3125 -0.265625 0.796875 -0.375q0.296875 -0.046875 1.078125 -0.046875l1.5625 0q1.625 0 2.0625 -0.078125q0.4375 -0.078125 0.828125 -0.296875l0 1.21875q-0.359375 0.1875 -0.859375 0.234375zm-2.609375 0.09375q0.265625 0.640625 0.4375 1.921875q0.109375 0.71875 0.25 1.015625q0.125 0.296875 0.375 0.46875q0.25 0.15625 0.546875 0.15625q0.46875 0 0.78125 -0.34375q0.3125 -0.359375 0.3125 -1.046875q0 -0.671875 -0.296875 -1.203125q-0.296875 -0.53125 -0.8125 -0.78125q-0.390625 -0.1875 -1.171875 -0.1875l-0.421875 0zm3.46875 -7.4749756l-0.875 0q1.03125 0.65625 1.03125 1.9375q0 0.8125 -0.453125 1.515625q-0.453125 0.6875 -1.265625 1.078125q-0.828125 0.375 -1.890625 0.375q-1.03125 0 -1.875 -0.34375q-0.84375 -0.34375 -1.28125 -1.03125q-0.453125 -0.703125 -0.453125 -1.546875q0 -0.625 0.265625 -1.109375q0.25 -0.5 0.671875 -0.796875l-3.421875 0l0 -1.171875l9.546875 0l0 1.09375zm-3.453125 3.703125q1.328125 0 1.984375 -0.5625q0.65625 -0.5625 0.65625 -1.328125q0 -0.765625 -0.625 -1.296875q-0.625 -0.53125 -1.90625 -0.53125q-1.421875 0 -2.078125 0.546875q-0.671875 0.546875 -0.671875 1.34375q0 0.78125 0.640625 1.3125q0.625 0.515625 2.0 0.515625zm-4.734375 -6.6468506l-1.359375 0l0 -1.171875l1.359375 0l0 1.171875zm8.1875 0l-6.90625 0l0 -1.171875l6.90625 0l0 1.171875zm0 -7.476715l-1.015625 0q1.171875 0.8125 1.171875 2.1875q0 0.609375 -0.234375 1.140625q-0.234375 0.53125 -0.578125 0.796875q-0.359375 0.25 -0.875 0.359375q-0.34375 0.0625 -1.09375 0.0625l-4.28125 0l0 -1.171875l3.828125 0q0.921875 0 1.234375 -0.0625q0.46875 -0.109375 0.734375 -0.46875q0.25 -0.359375 0.25 -0.890625q0 -0.515625 -0.265625 -0.984375q-0.265625 -0.46875 -0.734375 -0.65625q-0.46875 -0.1875 -1.34375 -0.1875l-3.703125 0l0 -1.171875l6.90625 0l0 1.046875zm-2.0625 -2.4124756l-0.1875 -1.15625q0.703125 -0.109375 1.078125 -0.546875q0.359375 -0.453125 0.359375 -1.25q0 -0.8125 -0.328125 -1.203125q-0.328125 -0.390625 -0.765625 -0.390625q-0.390625 0 -0.625 0.359375q-0.15625 0.234375 -0.390625 1.1875q-0.328125 1.296875 -0.5625 1.796875q-0.25 0.484375 -0.65625 0.75q-0.421875 0.25 -0.9375 0.25q-0.453125 0 -0.84375 -0.203125q-0.40625 -0.21875 -0.671875 -0.578125q-0.1875 -0.28125 -0.328125 -0.75q-0.140625 -0.46875 -0.140625 -1.015625q0 -0.8125 0.234375 -1.421875q0.234375 -0.609375 0.640625 -0.90625q0.390625 -0.296875 1.0625 -0.40625l0.15625 1.140625q-0.53125 0.078125 -0.828125 0.453125q-0.3125 0.375 -0.3125 1.0625q0 0.8125 0.265625 1.15625q0.265625 0.34375 0.625 0.34375q0.234375 0 0.421875 -0.140625q0.1875 -0.15625 0.3125 -0.453125q0.0625 -0.171875 0.296875 -1.03125q0.328125 -1.25 0.546875 -1.734375q0.203125 -0.5 0.609375 -0.78125q0.40625 -0.28125 1.0 -0.28125q0.59375 0 1.109375 0.34375q0.515625 0.34375 0.796875 1.0q0.28125 0.640625 0.28125 1.453125q0 1.34375 -0.5625 2.046875q-0.5625 0.703125 -1.65625 0.90625z" fill-rule="nonzero"/></g></svg>